<?xml version="1.0" encoding="utf-8"?>
<!-- Generator: Adobe Illustrator 23.0.0, SVG Export Plug-In . SVG Version: 6.00 Build 0)  -->
<svg version="1.1" id="Layer_3" xmlns="http://www.w3.org/2000/svg" xmlns:xlink="http://www.w3.org/1999/xlink" x="0px" y="0px"
	 viewBox="0 0 1500 500" style="enable-background:new 0 0 1500 500;" xml:space="preserve">
<g stroke="currentColor" stroke-dasharray="100" stroke-width="5" fill="rgba(0, 0, 0, 0.05)">
	<path class="st1" d="M198.9,358.7V237.6H77.7v121.1H32.3V78.5h45.4v119.5h121.1V78.5h45.8v280.3H198.9z M455,217.2v93.3c0.3,6,1.8,10.4,4.7,13.3c2.9,2.9,7.3,4.7,13.3,5.5l-1.2,34c-23.5,0-41.6-5-54.4-15.1
		c-21.8,10.1-43.8,15.1-65.9,15.1c-40.6,0-61-21.7-61-65.1c0-20.7,5.5-35.7,16.6-45c11-9.3,28-14.9,50.9-16.8l52.8-4.5v-14.7
		c0-10.9-2.4-18.5-7.2-22.9c-4.8-4.4-11.8-6.5-21.1-6.5c-17.5,0-39.3,1.1-65.5,3.3l-13.1,0.8l-1.6-31.5c29.7-7.1,57.1-10.6,82-10.6
		s43,5.4,54,16.2C449.5,176.6,455,193.7,455,217.2z M363.3,267.9c-18.8,1.6-28.2,11.9-28.2,30.7c0,18.8,8.3,28.2,25,28.2
		c13.6,0,28.1-2.2,43.4-6.5l7.4-2.5v-54.4L363.3,267.9z M587.6,149.7c14.5,0,31.5,1.9,51.1,5.7l10.2,2l-1.6,35.2c-21.6-2.2-37.5-3.3-47.9-3.3
		c-20.7,0-34.6,4.6-41.7,13.9c-7.1,9.3-10.6,26.7-10.6,52.4c0,25.6,3.4,43.4,10.2,53.2c6.8,9.8,21,14.7,42.6,14.7l47.9-3.3l1.2,35.6
		c-27.6,4.9-48.3,7.4-62.2,7.4c-31.1,0-53-8.4-65.7-25.2c-12.7-16.8-19-44.3-19-82.4c0-38.2,6.7-65.4,20-81.6
		C535.5,157.8,557.3,149.7,587.6,149.7z M736.5,358.7h-44.6V69h44.6v167.3l25.4-2.5l48.3-79.8h49.9l-58.9,95.7l62.2,108.8H813l-49.9-86.3l-26.6,2.9
		V358.7z"/>
</g>
<g class="st0">
	<path class="st2" d="M1069.5,265.4v93.3h-56.5V80.5h108c65.5,0,98.2,30.6,98.2,91.7c0,36.3-13.6,63-40.9,80.2l39.7,106.4h-61.8
		l-32.3-93.3H1069.5z M1151.8,204.9c6.5-8.2,9.8-19,9.8-32.3c0-13.4-3.5-24-10.4-31.9c-7-7.9-17-11.9-30.1-11.9h-51.6v88.4h52.4
		C1135.3,217.2,1145.2,213.1,1151.8,204.9z"/>
	<path class="st2" d="M1320.8,265.9c0,32.5,16.5,48.7,49.5,48.7c33,0,49.5-16.2,49.5-48.7V80.5h56.5v184.1
		c0,34.1-8.8,59.1-26.4,75.1c-17.6,16-44.1,23.9-79.6,23.9c-35.5,0-62-8-79.6-23.9c-17.6-16-26.4-41-26.4-75.1V80.5h56.5V265.9z"/>
</g>
</svg>
